<svg xmlns="http://www.w3.org/2000/svg" width="1280" height="1280" viewBox="0 0 1280 1280" fill="none">
  <rect width="1280" height="1280" fill="#020305" />

  <rect x="220" y="170" width="840" height="940" rx="72" fill="#0A0C10" stroke="#171A22" stroke-width="2" />

  <!-- Blue @ mark -->
  <text
    x="640"
    y="720"
    text-anchor="middle"
    font-family="Inter, Arial, sans-serif"
    font-size="500"
    font-weight="500"
    letter-spacing="-10"
    fill="#2F9BFF"
  >
    @
  </text>

  <!-- VS Code-like glyph (kept clean, no overlap noise) -->
  <g transform="translate(784 565)">
    <path d="M0 42 62 0v126L0 84z" fill="#2F9BFF" />
    <path d="m0 42-42 34-18-14 34-30-34-30 18-14 42 34z" fill="#1789EA" />
    <path d="M62 0 24 20v86l38 20z" fill="#4DB2FF" />
  </g>

  <!-- LOCRD-inspired caption -->
  <text
    x="640"
    y="844"
    text-anchor="middle"
    font-family="Inter, Arial, sans-serif"
    font-size="52"
    font-weight="500"
    letter-spacing="10"
    fill="#A2A8B3"
  >
    LOCATION
  </text>

  <!-- Dot-matrix ACCESS -->
  <g transform="translate(325 888)" fill="#E7ECF4">
    <circle cx="18" cy="0" r="5.2" />
    <circle cx="36" cy="0" r="5.2" />
    <circle cx="54" cy="0" r="5.2" />
    <circle cx="0" cy="18" r="5.2" />
    <circle cx="72" cy="18" r="5.2" />
    <circle cx="0" cy="36" r="5.2" />
    <circle cx="72" cy="36" r="5.2" />
    <circle cx="0" cy="54" r="5.2" />
    <circle cx="18" cy="54" r="5.2" />
    <circle cx="36" cy="54" r="5.2" />
    <circle cx="54" cy="54" r="5.2" />
    <circle cx="72" cy="54" r="5.2" />
    <circle cx="0" cy="72" r="5.2" />
    <circle cx="72" cy="72" r="5.2" />
    <circle cx="0" cy="90" r="5.2" />
    <circle cx="72" cy="90" r="5.2" />
    <circle cx="0" cy="108" r="5.2" />
    <circle cx="72" cy="108" r="5.2" />
    <circle cx="126" cy="0" r="5.2" />
    <circle cx="144" cy="0" r="5.2" />
    <circle cx="162" cy="0" r="5.2" />
    <circle cx="180" cy="0" r="5.2" />
    <circle cx="108" cy="18" r="5.2" />
    <circle cx="108" cy="36" r="5.2" />
    <circle cx="108" cy="54" r="5.2" />
    <circle cx="108" cy="72" r="5.2" />
    <circle cx="108" cy="90" r="5.2" />
    <circle cx="126" cy="108" r="5.2" />
    <circle cx="144" cy="108" r="5.2" />
    <circle cx="162" cy="108" r="5.2" />
    <circle cx="180" cy="108" r="5.2" />
    <circle cx="234" cy="0" r="5.2" />
    <circle cx="252" cy="0" r="5.2" />
    <circle cx="270" cy="0" r="5.2" />
    <circle cx="288" cy="0" r="5.2" />
    <circle cx="216" cy="18" r="5.2" />
    <circle cx="216" cy="36" r="5.2" />
    <circle cx="216" cy="54" r="5.2" />
    <circle cx="216" cy="72" r="5.2" />
    <circle cx="216" cy="90" r="5.2" />
    <circle cx="234" cy="108" r="5.2" />
    <circle cx="252" cy="108" r="5.2" />
    <circle cx="270" cy="108" r="5.2" />
    <circle cx="288" cy="108" r="5.2" />
    <circle cx="324" cy="0" r="5.2" />
    <circle cx="342" cy="0" r="5.2" />
    <circle cx="360" cy="0" r="5.2" />
    <circle cx="378" cy="0" r="5.2" />
    <circle cx="396" cy="0" r="5.2" />
    <circle cx="324" cy="18" r="5.2" />
    <circle cx="324" cy="36" r="5.2" />
    <circle cx="324" cy="54" r="5.2" />
    <circle cx="342" cy="54" r="5.2" />
    <circle cx="360" cy="54" r="5.2" />
    <circle cx="378" cy="54" r="5.2" />
    <circle cx="324" cy="72" r="5.2" />
    <circle cx="324" cy="90" r="5.2" />
    <circle cx="324" cy="108" r="5.2" />
    <circle cx="342" cy="108" r="5.2" />
    <circle cx="360" cy="108" r="5.2" />
    <circle cx="378" cy="108" r="5.2" />
    <circle cx="396" cy="108" r="5.2" />
    <circle cx="450" cy="0" r="5.2" />
    <circle cx="468" cy="0" r="5.2" />
    <circle cx="486" cy="0" r="5.2" />
    <circle cx="504" cy="0" r="5.2" />
    <circle cx="432" cy="18" r="5.2" />
    <circle cx="432" cy="36" r="5.2" />
    <circle cx="450" cy="54" r="5.2" />
    <circle cx="468" cy="54" r="5.2" />
    <circle cx="486" cy="54" r="5.2" />
    <circle cx="504" cy="72" r="5.2" />
    <circle cx="504" cy="90" r="5.2" />
    <circle cx="432" cy="108" r="5.2" />
    <circle cx="450" cy="108" r="5.2" />
    <circle cx="468" cy="108" r="5.2" />
    <circle cx="486" cy="108" r="5.2" />
    <circle cx="558" cy="0" r="5.2" />
    <circle cx="576" cy="0" r="5.2" />
    <circle cx="594" cy="0" r="5.2" />
    <circle cx="612" cy="0" r="5.2" />
    <circle cx="540" cy="18" r="5.2" />
    <circle cx="540" cy="36" r="5.2" />
    <circle cx="558" cy="54" r="5.2" />
    <circle cx="576" cy="54" r="5.2" />
    <circle cx="594" cy="54" r="5.2" />
    <circle cx="612" cy="72" r="5.2" />
    <circle cx="612" cy="90" r="5.2" />
    <circle cx="540" cy="108" r="5.2" />
    <circle cx="558" cy="108" r="5.2" />
    <circle cx="576" cy="108" r="5.2" />
    <circle cx="594" cy="108" r="5.2" />
  </g>
</svg>
